<?xml version="1.0" encoding="utf-8" standalone="yes"?>
<!DOCTYPE svg PUBLIC "-//W3C//DTD SVG 1.1//EN" "http://www.w3.org/Graphics/SVG/1.1/DTD/svg11.dtd">
<svg width="506" height="494" viewBox="0 0 506 494" style="fill:none;stroke:none;fill-rule:evenodd;clip-rule:evenodd;stroke-linecap:round;stroke-linejoin:round;stroke-miterlimit:1.5;" version="1.1" xmlns="http://www.w3.org/2000/svg" xmlns:xlink="http://www.w3.org/1999/xlink"><style class="text-font-style fontImports" data-font-family="Roboto">@import url('https://fonts.googleapis.com/css2?family=Roboto:wght@400;700&amp;display=block');</style><g id="items" style="isolation: isolate"><g id="blend" style="mix-blend-mode: normal"><g id="g-root-4.cu_sy_m9uw8cpkkaof-fill" data-item-order="-45212" transform="translate(131.4781494140625, 227.735107421875)"><g id="4.cu_sy_m9uw8cpkkaof-fill" stroke="none" fill="#3b5649"><g><path d="M 38.4874 132.598L 32.9573 136.889L 30.8114 134.124C 4.8341 100.6505 3.1768 54.4215 25.8346 19.3194L 22.0214 16.5317L 36.8089 10L 35.0717 26.0722L 31.4958 23.458C 10.6683 56.0414 12.2851 98.8342 36.3416 129.833L 38.4874 132.598Z"></path></g></g></g><g id="g-root-3.cu_sy_hu1e3wpkkbgo-fill" data-item-order="-45208" transform="translate(167.76815795898438, 362.063720703125)"><g id="3.cu_sy_hu1e3wpkkbgo-fill" stroke="none" fill="#68403f"><g><path d="M 132.598 10L 136.889 15.5301L 134.124 17.6759C 100.6505 43.6533 54.4215 45.3106 19.3194 22.6528L 16.5317 26.466L 10 11.6785L 26.0722 13.4156L 23.458 16.9915C 56.0414 37.8191 98.8342 36.2022 129.833 12.1458L 132.598 10Z"></path></g></g></g><g id="g-root-2.cu_sy_hu1e3wpkkbgp-fill" data-item-order="-45204" transform="translate(301.9957275390625, 227.274169921875)"><g id="2.cu_sy_hu1e3wpkkbgp-fill" stroke="none" fill="#5c4938"><g><path d="M 26.4584 130.358L 11.6705 136.889L 13.4086 120.817L 16.9844 123.431C 37.8142 90.8492 36.1997 48.0563 12.1456 17.0564L 10 14.2912L 15.5304 10L 17.676 12.7652C 43.6508 46.2404 45.3056 92.4695 22.6454 127.57L 26.4584 130.358Z"></path></g></g></g><g id="g-root-1.cu_sy_deud2kpkk936-fill" data-item-order="-45200" transform="translate(167.30471801757812, 191.550048828125)"><g id="1.cu_sy_deud2kpkk936-fill" stroke="none" fill="#54502f"><g><path d="M 130.358 22.025015L 136.889 36.812915L 120.817 35.074815L 123.431 31.499115C 90.8492 10.669215 48.0563 12.283715 17.0564 36.337815L 14.2912 38.483415L 10 32.953015L 12.7652 30.807415C 46.2404 4.832615 92.4694 3.177815 127.57 25.838015L 130.358 22.025015Z"></path></g></g></g><g id="g-root-tx_winstons_3dup8pkkao7-fill" data-item-order="0" transform="translate(105, 39)"><g id="tx_winstons_3dup8pkkao7-fill" stroke="none" fill="#f4f4f4"><g><text style="font: bold 20px Roboto, sans-serif; white-space: pre;" font-weight="bold" font-size="20px" font-family="Roboto, sans-serif"><tspan x="16.21" y="34" dominant-baseline="ideographic">Winston's Reasoning Cycle</tspan></text></g></g></g><g id="g-root-tx_problema_3dup8pkkao6-fill" data-item-order="0" transform="translate(189, 123)"><g id="tx_problema_3dup8pkkao6-fill" stroke="none" fill="#f4f4f4"><g><text style="font: 20px Roboto, sans-serif; white-space: pre;" font-size="20px" font-family="Roboto, sans-serif"><tspan x="12.09" y="34" dominant-baseline="ideographic">Problem </tspan><tspan x="12.11" y="58" dominant-baseline="ideographic">Analysis</tspan></text></g></g></g><g id="g-root-tx_validati_deud2kpkk937-fill" data-item-order="0" transform="translate(15, 279)"><g id="tx_validati_deud2kpkk937-fill" stroke="none" fill="#f4f4f4"><g><text style="font: 20px Roboto, sans-serif; white-space: pre;" font-size="20px" font-family="Roboto, sans-serif"><tspan x="15.09" y="34" dominant-baseline="ideographic">Validation</tspan></text></g></g></g><g id="g-root-tx_hypothes_4j7ctopkk9vx-fill" data-item-order="0" transform="translate(351, 267)"><g id="tx_hypothes_4j7ctopkk9vx-fill" stroke="none" fill="#f4f4f4"><g><text style="font: 20px Roboto, sans-serif; white-space: pre;" font-size="20px" font-family="Roboto, sans-serif"><tspan x="12" y="34" dominant-baseline="ideographic">Hypothesis </tspan><tspan x="12" y="58" dominant-baseline="ideographic">Generation</tspan></text></g></g></g><g id="g-root-tx_inquiryd_4j7ctopkk9vw-fill" data-item-order="0" transform="translate(165, 411)"><g id="tx_inquiryd_4j7ctopkk9vw-fill" stroke="none" fill="#f4f4f4"><g><text style="font: 20px Roboto, sans-serif; white-space: pre;" font-size="20px" font-family="Roboto, sans-serif"><tspan x="12.84" y="34" dominant-baseline="ideographic">Inquiry Design</tspan></text></g></g></g><g id="g-root-4.cu_sy_m9uw8cpkkaof-stroke" data-item-order="-45212" transform="translate(131.4781494140625, 227.735107421875)"><g id="4.cu_sy_m9uw8cpkkaof-stroke" fill="none" stroke-linecap="round" stroke-linejoin="round" stroke-miterlimit="4" stroke="#43dd93" stroke-width="2"><g><path d="M 38.4874 132.5979L 32.9573 136.8895L 30.8114 134.1244C 4.8341 100.6505 3.1768 54.4215 25.8346 19.3194L 22.0214 16.5317L 36.8089 10L 35.0717 26.0722L 31.4958 23.458C 10.6683 56.0414 12.2851 98.8342 36.3416 129.8328L 38.4874 132.5979Z"></path></g></g></g><g id="g-root-3.cu_sy_hu1e3wpkkbgo-stroke" data-item-order="-45208" transform="translate(167.76815795898438, 362.063720703125)"><g id="3.cu_sy_hu1e3wpkkbgo-stroke" fill="none" stroke-linecap="round" stroke-linejoin="round" stroke-miterlimit="4" stroke="#fb6762" stroke-width="2"><g><path d="M 132.5979 10L 136.8895 15.5301L 134.1244 17.6759C 100.6505 43.6533 54.4215 45.3106 19.3194 22.6528L 16.5317 26.466L 10 11.6785L 26.0722 13.4156L 23.458 16.9915C 56.0414 37.8191 98.8342 36.2022 129.8328 12.1458L 132.5979 10Z"></path></g></g></g><g id="g-root-2.cu_sy_hu1e3wpkkbgp-stroke" data-item-order="-45204" transform="translate(301.9957275390625, 227.274169921875)"><g id="2.cu_sy_hu1e3wpkkbgp-stroke" fill="none" stroke-linecap="round" stroke-linejoin="round" stroke-miterlimit="4" stroke="#f79438" stroke-width="2"><g><path d="M 26.4584 130.3583L 11.6705 136.8891L 13.4086 120.817L 16.9844 123.4314C 37.8142 90.8491 36.1997 48.0563 12.1456 17.0564L 10 14.2912L 15.5304 10L 17.676 12.7652C 43.6508 46.2404 45.3056 92.4694 22.6454 127.5704L 26.4584 130.3583Z"></path></g></g></g><g id="g-root-1.cu_sy_deud2kpkk936-stroke" data-item-order="-45200" transform="translate(167.30471801757812, 191.550048828125)"><g id="1.cu_sy_deud2kpkk936-stroke" fill="none" stroke-linecap="round" stroke-linejoin="round" stroke-miterlimit="4" stroke="#ffe711" stroke-width="2"><g><path d="M 130.3583 22.025015L 136.8891 36.812915L 120.817 35.074815L 123.4314 31.499115C 90.8491 10.669215 48.0563 12.283715 17.0564 36.337815L 14.2912 38.483415L 10 32.953015L 12.7652 30.807415C 46.2404 4.832615 92.4694 3.177815 127.5704 25.838015L 130.3583 22.025015Z"></path></g></g></g><g id="g-root-tx_winstons_3dup8pkkao7-stroke" data-item-order="0" transform="translate(105, 39)"></g><g id="g-root-tx_problema_3dup8pkkao6-stroke" data-item-order="0" transform="translate(189, 123)"></g><g id="g-root-tx_validati_deud2kpkk937-stroke" data-item-order="0" transform="translate(15, 279)"></g><g id="g-root-tx_hypothes_4j7ctopkk9vx-stroke" data-item-order="0" transform="translate(351, 267)"></g><g id="g-root-tx_inquiryd_4j7ctopkk9vw-stroke" data-item-order="0" transform="translate(165, 411)"></g></g></g></svg>